# xmcd
#
# Track frame offsets:
#	150
#	15997
#	31352
#	48395
#	62985
#	77270
#	95682
#	115117
#	133997
#	150577
#	168430
#	185165
#	211822
#
# Disc length: 2845 seconds
#
# Revision: 1
# Processed by: cddbd v1.5.1PL2 Copyright (c) Steve Scherf et al.
# Submitted via: EasyCDDAExtractor 5.0.7
#
DISCID=a80b1b0d
DTITLE=SHeDAISY - FortuneTeller's Melody
DYEAR=2006
DGENRE=Country
TTITLE0=23 Days
TTITLE1=Whatever It Takes
TTITLE2=Brings It On Back
TTITLE3=I'm Taking The Wheel
TTITLE4=God Bless The American Housewife
TTITLE5=Kickin' In
TTITLE6=Healing Side
TTITLE7=What Do I Do Now
TTITLE8=In Terms Of Love
TTITLE9=Burn Down The House
TTITLE10=Out Of My Mind
TTITLE11=She Gets What I Deserved
TTITLE12=Data
EXTD=
EXTT0=
EXTT1=
EXTT2=
EXTT3=
EXTT4=
EXTT5=
EXTT6=
EXTT7=
EXTT8=
EXTT9=
EXTT10=
EXTT11=
EXTT12=
PLAYORDER=
